<svg version="1.0" xmlns="http://www.w3.org/2000/svg"
 width="12.000000pt" height="12.000000pt" viewBox="0 0 64.000000 64.000000"
 preserveAspectRatio="xMidYMid meet">

<g transform="translate(0.000000,64.000000) scale(0.100000,-0.100000)"
fill="#000000" stroke="none">
<path d="M0 455 l0 -185 33 0 c28 0 46 13 125 93 l92 92 0 93 0 92 -125 0
-125 0 0 -185z"/>
<path d="M245 420 l-150 -150 175 0 176 0 64 65 64 65 -84 85 c-47 47 -87 85
-90 85 -3 0 -73 -67 -155 -150z"/>
<path d="M0 125 l0 -125 320 0 320 0 0 125 0 125 -320 0 -320 0 0 -125z m160
35 c24 -24 25 -38 4 -68 -18 -26 -50 -28 -76 -5 -25 22 -23 59 4 77 30 21 44
20 68 -4z"/>
</g>
</svg>
