<svg version="1.1" xmlns="http://www.w3.org/2000/svg" width="12.000000pt" height="12.000000pt">
<path d="M0 0 C21.12 0 42.24 0 64 0 C64 3.96 64 7.92 64 12 C59.86506769 15.10119923 59.26691763 15.37642435 54.46875 15.38818359 C52.80682617 15.40236832 52.80682617 15.40236832 51.11132812 15.4168396 C49.91958984 15.41076691 48.72785156 15.40469421 47.5 15.3984375 C46.27216797 15.40130768 45.04433594 15.40417786 43.77929688 15.40713501 C41.18358906 15.40917631 38.58786588 15.40364193 35.9921875 15.39111328 C32.01527565 15.37506166 28.03938018 15.39096091 24.0625 15.41015625 C21.54166442 15.40817383 19.02082947 15.40433019 16.5 15.3984375 C15.30826172 15.40451019 14.11652344 15.41058289 12.88867188 15.4168396 C11.78072266 15.40738312 10.67277344 15.39792664 9.53125 15.38818359 C8.55736328 15.38579681 7.58347656 15.38341003 6.58007812 15.38095093 C4 15 4 15 0 12 C0 8.04 0 4.08 0 0 Z " fill="#000000" transform="translate(0,0)"/>
<path d="M0 0 C21.12 0 42.24 0 64 0 C63.67 5.61 63.34 11.22 63 17 C59.7 17 56.4 17 53 17 C52.505 15.02 52.505 15.02 52 13 C49.70658315 9.83063504 48.5127381 9.08252825 44.60839844 8.45410156 C43.2887207 8.4331543 41.96904297 8.41220703 40.609375 8.390625 C39.90476135 8.37408875 39.20014771 8.35755249 38.47418213 8.34051514 C36.23269898 8.29208861 33.99189387 8.27067813 31.75 8.25 C30.22652849 8.22183552 28.70308848 8.19190741 27.1796875 8.16015625 C23.45327244 8.08633407 19.7269862 8.03672531 16 8 C15.34 9.32 14.68 10.64 14 12 C13.34 12 12.68 12 12 12 C12 13.65 12 15.3 12 17 C8.37 17 4.74 17 1 17 C0.67 11.39 0.34 5.78 0 0 Z " fill="#000000" transform="translate(0,47)"/>
<path d="M0 0 C2.5 1.5 2.5 1.5 4 4 C4.791013 8.02098277 4.62153384 10.96411027 2.5 14.5 C-1.03588973 16.62153384 -3.97901723 16.791013 -8 16 C-10.5 14.5 -10.5 14.5 -12 12 C-12.791013 7.97901723 -12.62153384 5.03588973 -10.5 1.5 C-6.96411027 -0.62153384 -4.02098277 -0.791013 0 0 Z " fill="#000000" transform="translate(36,18)"/>
<path d="M0 0 C1.20446777 0.01047363 2.40893555 0.02094727 3.64990234 0.03173828 C5.60283203 0.04140625 5.60283203 0.04140625 7.59521484 0.05126953 C8.9754258 0.06798149 10.35563413 0.08491139 11.73583984 0.10205078 C13.12385436 0.11208072 14.51187574 0.12120655 15.89990234 0.12939453 C19.3037201 0.15303215 22.70719491 0.18598211 26.11083984 0.22705078 C26.11083984 0.88705078 26.11083984 1.54705078 26.11083984 2.22705078 C27.10083984 2.55705078 28.09083984 2.88705078 29.11083984 3.22705078 C29.11083984 4.21705078 29.11083984 5.20705078 29.11083984 6.22705078 C17.56083984 6.22705078 6.01083984 6.22705078 -5.88916016 6.22705078 C-4.41922092 0.34729385 -4.41922092 0.34729385 0 0 Z " fill="#000000" transform="translate(20.88916015625,57.77294921875)"/>
<path d="M0 0 C1.65 0 3.3 0 5 0 C5 8.91 5 17.82 5 27 C3.35 27 1.7 27 0 27 C0 18.09 0 9.18 0 0 Z " fill="#000000" transform="translate(56,17)"/>
<path d="M0 0 C1.65 0 3.3 0 5 0 C5 8.91 5 17.82 5 27 C3.35 27 1.7 27 0 27 C0 18.09 0 9.18 0 0 Z " fill="#000000" transform="translate(3,17)"/>
<path d="M0 0 C2.36810318 0.94724127 3.75207953 1.65291134 5.25 3.75 C6.19251213 6.57753638 6.1345485 9.03993304 6 12 C3.36 12 0.72 12 -2 12 C-2.05395478 10.37536158 -2.09277195 8.75021459 -2.125 7.125 C-2.14820313 6.22007813 -2.17140625 5.31515625 -2.1953125 4.3828125 C-2 2 -2 2 0 0 Z " fill="#000000" transform="translate(41,32)"/>
<path d="M0 0 C1.32 0.66 2.64 1.32 4 2 C4 5.3 4 8.6 4 12 C1.36 12 -1.28 12 -4 12 C-3.91253716 10.56138706 -3.80434652 9.12402492 -3.6875 7.6875 C-3.62949219 6.88699219 -3.57148438 6.08648437 -3.51171875 5.26171875 C-2.91793306 2.63727666 -2.04219706 1.69179328 0 0 Z " fill="#000000" transform="translate(21,32)"/>
<path d="M0 0 C2.64 0 5.28 0 8 0 C8 2.31 8 4.62 8 7 C5.36 7 2.72 7 0 7 C0 4.69 0 2.38 0 0 Z " fill="#000000" transform="translate(28,37)"/>
</svg>
