<?xml version="1.0" encoding="UTF-8"?>
<svg version="1.1" xmlns="http://www.w3.org/2000/svg" width="64" height="64">
<path d="M0 0 C1.46566406 -0.00386719 1.46566406 -0.00386719 2.9609375 -0.0078125 C3.98445312 -0.00007813 5.00796875 0.00765625 6.0625 0.015625 C7.08601563 0.00789063 8.10953125 0.00015625 9.1640625 -0.0078125 C10.14117188 -0.00523438 11.11828125 -0.00265625 12.125 0 C13.02347656 0.00225586 13.92195313 0.00451172 14.84765625 0.00683594 C17.0625 0.265625 17.0625 0.265625 19.0625 2.265625 C19.32128906 4.48046875 19.32128906 4.48046875 19.328125 7.203125 C19.33199219 8.66878906 19.33199219 8.66878906 19.3359375 10.1640625 C19.32820313 11.18757813 19.32046875 12.21109375 19.3125 13.265625 C19.32023437 14.28914063 19.32796875 15.31265625 19.3359375 16.3671875 C19.33335938 17.34429687 19.33078125 18.32140625 19.328125 19.328125 C19.32586914 20.22660156 19.32361328 21.12507813 19.32128906 22.05078125 C19.0625 24.265625 19.0625 24.265625 17.0625 26.265625 C14.84765625 26.52441406 14.84765625 26.52441406 12.125 26.53125 C11.14789062 26.53382812 10.17078125 26.53640625 9.1640625 26.5390625 C8.14054687 26.53132813 7.11703125 26.52359375 6.0625 26.515625 C5.03898438 26.52335937 4.01546875 26.53109375 2.9609375 26.5390625 C1.98382813 26.53648438 1.00671875 26.53390625 0 26.53125 C-0.89847656 26.52899414 -1.79695312 26.52673828 -2.72265625 26.52441406 C-4.9375 26.265625 -4.9375 26.265625 -6.9375 24.265625 C-7.19628906 22.05078125 -7.19628906 22.05078125 -7.203125 19.328125 C-7.20570312 18.35101563 -7.20828125 17.37390625 -7.2109375 16.3671875 C-7.20320312 15.34367187 -7.19546875 14.32015625 -7.1875 13.265625 C-7.19523438 12.24210937 -7.20296875 11.21859375 -7.2109375 10.1640625 C-7.20835938 9.18695313 -7.20578125 8.20984375 -7.203125 7.203125 C-7.20086914 6.30464844 -7.19861328 5.40617187 -7.19628906 4.48046875 C-6.66091121 -0.10155752 -3.93677013 0.00988429 0 0 Z " fill="#000000" transform="translate(10.9375,33.734375)"/>
<path d="M0 0 C1.46566406 -0.00386719 1.46566406 -0.00386719 2.9609375 -0.0078125 C3.98445313 -0.00007812 5.00796875 0.00765625 6.0625 0.015625 C7.08601563 0.00789062 8.10953125 0.00015625 9.1640625 -0.0078125 C10.14117187 -0.00523438 11.11828125 -0.00265625 12.125 0 C13.02347656 0.00225586 13.92195313 0.00451172 14.84765625 0.00683594 C17.0625 0.265625 17.0625 0.265625 19.0625 2.265625 C19.32128906 4.48046875 19.32128906 4.48046875 19.328125 7.203125 C19.33199219 8.66878906 19.33199219 8.66878906 19.3359375 10.1640625 C19.32820313 11.18757812 19.32046875 12.21109375 19.3125 13.265625 C19.32023437 14.28914063 19.32796875 15.31265625 19.3359375 16.3671875 C19.33335938 17.34429688 19.33078125 18.32140625 19.328125 19.328125 C19.32586914 20.22660156 19.32361328 21.12507813 19.32128906 22.05078125 C19.0625 24.265625 19.0625 24.265625 17.0625 26.265625 C14.84765625 26.52441406 14.84765625 26.52441406 12.125 26.53125 C11.14789063 26.53382812 10.17078125 26.53640625 9.1640625 26.5390625 C8.14054687 26.53132813 7.11703125 26.52359375 6.0625 26.515625 C5.03898437 26.52335937 4.01546875 26.53109375 2.9609375 26.5390625 C1.98382813 26.53648438 1.00671875 26.53390625 0 26.53125 C-0.89847656 26.52899414 -1.79695313 26.52673828 -2.72265625 26.52441406 C-4.9375 26.265625 -4.9375 26.265625 -6.9375 24.265625 C-7.19628906 22.05078125 -7.19628906 22.05078125 -7.203125 19.328125 C-7.20570312 18.35101562 -7.20828125 17.37390625 -7.2109375 16.3671875 C-7.20320313 15.34367187 -7.19546875 14.32015625 -7.1875 13.265625 C-7.19523437 12.24210938 -7.20296875 11.21859375 -7.2109375 10.1640625 C-7.20835938 9.18695313 -7.20578125 8.20984375 -7.203125 7.203125 C-7.20086914 6.30464844 -7.19861328 5.40617188 -7.19628906 4.48046875 C-6.66091121 -0.10155752 -3.93677013 0.00988429 0 0 Z " fill="#000000" transform="translate(40.9375,3.734375)"/>
<path d="M0 0 C0.886875 -0.00257812 1.77375 -0.00515625 2.6875 -0.0078125 C4.0796875 0.00378906 4.0796875 0.00378906 5.5 0.015625 C6.428125 0.00789063 7.35625 0.00015625 8.3125 -0.0078125 C9.6428125 -0.00394531 9.6428125 -0.00394531 11 0 C11.8146875 0.00225586 12.629375 0.00451172 13.46875 0.00683594 C15.5 0.265625 15.5 0.265625 17.5 2.265625 C17.75878906 4.296875 17.75878906 4.296875 17.765625 6.765625 C17.76949219 8.0959375 17.76949219 8.0959375 17.7734375 9.453125 C17.76570313 10.38125 17.75796875 11.309375 17.75 12.265625 C17.75773437 13.19375 17.76546875 14.121875 17.7734375 15.078125 C17.77085938 15.965 17.76828125 16.851875 17.765625 17.765625 C17.76336914 18.5803125 17.76111328 19.395 17.75878906 20.234375 C17.5 22.265625 17.5 22.265625 15.5 24.265625 C13.46875 24.52441406 13.46875 24.52441406 11 24.53125 C10.113125 24.53382812 9.22625 24.53640625 8.3125 24.5390625 C7.384375 24.53132813 6.45625 24.52359375 5.5 24.515625 C4.1078125 24.52722656 4.1078125 24.52722656 2.6875 24.5390625 C1.3571875 24.53519531 1.3571875 24.53519531 0 24.53125 C-0.8146875 24.52899414 -1.629375 24.52673828 -2.46875 24.52441406 C-4.5 24.265625 -4.5 24.265625 -6.5 22.265625 C-6.75878906 20.234375 -6.75878906 20.234375 -6.765625 17.765625 C-6.76820312 16.87875 -6.77078125 15.991875 -6.7734375 15.078125 C-6.76183594 13.6859375 -6.76183594 13.6859375 -6.75 12.265625 C-6.75773437 11.3375 -6.76546875 10.409375 -6.7734375 9.453125 C-6.77085938 8.56625 -6.76828125 7.679375 -6.765625 6.765625 C-6.76336914 5.9509375 -6.76111328 5.13625 -6.75878906 4.296875 C-6.21708282 0.04499205 -3.6638033 0.01014502 0 0 Z M-2.5 6.265625 C-2.81991706 9.09432749 -2.81991706 9.09432749 -2.75 12.265625 C-2.75515625 13.338125 -2.7603125 14.410625 -2.765625 15.515625 C-2.78027649 18.40924678 -2.78027649 18.40924678 -0.5 20.265625 C2.32870249 20.58554206 2.32870249 20.58554206 5.5 20.515625 C6.5725 20.52078125 7.645 20.5259375 8.75 20.53125 C11.64362178 20.54590149 11.64362178 20.54590149 13.5 18.265625 C13.81991706 15.43692251 13.81991706 15.43692251 13.75 12.265625 C13.75515625 11.193125 13.7603125 10.120625 13.765625 9.015625 C13.78027649 6.12200322 13.78027649 6.12200322 11.5 4.265625 C8.67129751 3.94570794 8.67129751 3.94570794 5.5 4.015625 C4.4275 4.01046875 3.355 4.0053125 2.25 4 C-0.64362178 3.98534851 -0.64362178 3.98534851 -2.5 6.265625 Z " fill="#000000" transform="translate(42.5,35.734375)"/>
<path d="M0 0 C0.886875 -0.00257812 1.77375 -0.00515625 2.6875 -0.0078125 C4.0796875 0.00378906 4.0796875 0.00378906 5.5 0.015625 C6.428125 0.00789062 7.35625 0.00015625 8.3125 -0.0078125 C9.6428125 -0.00394531 9.6428125 -0.00394531 11 0 C11.8146875 0.00225586 12.629375 0.00451172 13.46875 0.00683594 C15.5 0.265625 15.5 0.265625 17.5 2.265625 C17.75878906 4.296875 17.75878906 4.296875 17.765625 6.765625 C17.76949219 8.0959375 17.76949219 8.0959375 17.7734375 9.453125 C17.76570313 10.38125 17.75796875 11.309375 17.75 12.265625 C17.75773437 13.19375 17.76546875 14.121875 17.7734375 15.078125 C17.77085938 15.965 17.76828125 16.851875 17.765625 17.765625 C17.76336914 18.5803125 17.76111328 19.395 17.75878906 20.234375 C17.5 22.265625 17.5 22.265625 15.5 24.265625 C13.46875 24.52441406 13.46875 24.52441406 11 24.53125 C10.113125 24.53382812 9.22625 24.53640625 8.3125 24.5390625 C7.384375 24.53132813 6.45625 24.52359375 5.5 24.515625 C4.1078125 24.52722656 4.1078125 24.52722656 2.6875 24.5390625 C1.3571875 24.53519531 1.3571875 24.53519531 0 24.53125 C-0.8146875 24.52899414 -1.629375 24.52673828 -2.46875 24.52441406 C-4.5 24.265625 -4.5 24.265625 -6.5 22.265625 C-6.75878906 20.234375 -6.75878906 20.234375 -6.765625 17.765625 C-6.76820312 16.87875 -6.77078125 15.991875 -6.7734375 15.078125 C-6.76183594 13.6859375 -6.76183594 13.6859375 -6.75 12.265625 C-6.75773438 11.3375 -6.76546875 10.409375 -6.7734375 9.453125 C-6.77085938 8.56625 -6.76828125 7.679375 -6.765625 6.765625 C-6.76336914 5.9509375 -6.76111328 5.13625 -6.75878906 4.296875 C-6.21708282 0.04499205 -3.6638033 0.01014502 0 0 Z M-2.5 6.265625 C-2.81991706 9.09432749 -2.81991706 9.09432749 -2.75 12.265625 C-2.75515625 13.338125 -2.7603125 14.410625 -2.765625 15.515625 C-2.78027649 18.40924678 -2.78027649 18.40924678 -0.5 20.265625 C2.32870249 20.58554206 2.32870249 20.58554206 5.5 20.515625 C6.5725 20.52078125 7.645 20.5259375 8.75 20.53125 C11.64362178 20.54590149 11.64362178 20.54590149 13.5 18.265625 C13.81991706 15.43692251 13.81991706 15.43692251 13.75 12.265625 C13.75515625 11.193125 13.7603125 10.120625 13.765625 9.015625 C13.78027649 6.12200322 13.78027649 6.12200322 11.5 4.265625 C8.67129751 3.94570794 8.67129751 3.94570794 5.5 4.015625 C4.4275 4.01046875 3.355 4.0053125 2.25 4 C-0.64362178 3.98534851 -0.64362178 3.98534851 -2.5 6.265625 Z " fill="#000000" transform="translate(10.5,3.734375)"/>
</svg>
