<?xml version="1.0" encoding="UTF-8"?>
<svg version="1.1" xmlns="http://www.w3.org/2000/svg" width="64" height="64">
<path d="M0 0 C1.21720482 0.00136711 1.21720482 0.00136711 2.45899963 0.00276184 C3.29250443 -0.00152328 4.12600922 -0.00580841 4.98477173 -0.01022339 C6.74920238 -0.01597126 8.51365674 -0.01646359 10.27809143 -0.01213074 C12.98008121 -0.00897336 15.68097367 -0.03241436 18.38282776 -0.05778503 C20.095717 -0.06005822 21.80860919 -0.06076143 23.52149963 -0.05973816 C24.33094528 -0.06894791 25.14039093 -0.07815765 25.97436523 -0.08764648 C31.62728365 -0.04095435 31.62728365 -0.04095435 33.76199341 1.67178345 C35.53928762 3.91183985 35.56065279 5.66509549 35.74415588 8.49104309 C35.84276917 9.84262512 35.84276917 9.84262512 35.94337463 11.22151184 C35.99944885 12.25211731 35.99944885 12.25211731 36.05665588 13.30354309 C36.6715387 13.28033997 37.28642151 13.25713684 37.91993713 13.23323059 C38.72817932 13.21518372 39.53642151 13.19713684 40.36915588 13.17854309 C41.1696637 13.15533997 41.97017151 13.13213684 42.79493713 13.10823059 C45.05665588 13.30354309 45.05665588 13.30354309 48.05665588 15.30354309 C48.7581068 19.74348268 48.56585897 24.25223778 48.55665588 28.74104309 C48.58501526 29.99465637 48.61337463 31.24826965 48.64259338 32.53987122 C48.64646057 34.3390802 48.64646057 34.3390802 48.65040588 36.17463684 C48.65749573 37.27734924 48.66458557 38.38006165 48.67189026 39.51618958 C48.05665588 42.30354309 48.05665588 42.30354309 45.51954651 44.18659973 C44.7067926 44.55519104 43.8940387 44.92378235 43.05665588 45.30354309 C43.55165588 47.77854309 43.55165588 47.77854309 44.05665588 50.30354309 C40.19434596 49.89698415 37.16111013 48.92572108 33.68165588 47.30354309 C28.29782846 45.01500483 23.18700929 44.75798552 17.41456604 44.63166809 C12.24440313 44.49129033 12.24440313 44.49129033 10.05665588 42.30354309 C9.93165588 39.67854309 9.93165588 39.67854309 10.05665588 37.30354309 C9.04345276 37.73666809 9.04345276 37.73666809 8.00978088 38.17854309 C7.11774963 38.54979309 6.22571838 38.92104309 5.30665588 39.30354309 C4.42493713 39.67479309 3.54321838 40.04604309 2.63478088 40.42854309 C0.05665588 41.30354309 0.05665588 41.30354309 -3.94334412 41.30354309 C-3.28334412 39.32354309 -2.62334412 37.34354309 -1.94334412 35.30354309 C-3.92334412 34.31354309 -5.90334412 33.32354309 -7.94334412 32.30354309 C-7.9927304 28.06771982 -8.02905674 23.83204844 -8.0532074 19.59602356 C-8.06327374 18.15458762 -8.07692792 16.71317214 -8.09422302 15.27180481 C-8.11844423 13.20160376 -8.12982053 11.13167233 -8.13865662 9.06135559 C-8.14913025 7.81499329 -8.15960388 6.56863098 -8.1703949 5.28450012 C-7.74631949 -0.28319952 -4.90942135 0.06231625 0 0 Z M-2.94334412 10.30354309 C-2.94334412 14.59354309 -2.94334412 18.88354309 -2.94334412 23.30354309 C-2.61334412 23.30354309 -2.28334412 23.30354309 -1.94334412 23.30354309 C-1.94334412 20.99354309 -1.94334412 18.68354309 -1.94334412 16.30354309 C0.03665588 16.30354309 2.01665588 16.30354309 4.05665588 16.30354309 C4.05665588 15.97354309 4.05665588 15.64354309 4.05665588 15.30354309 C2.07665588 15.30354309 0.09665588 15.30354309 -1.94334412 15.30354309 C-1.94334412 13.98354309 -1.94334412 12.66354309 -1.94334412 11.30354309 C0.36665588 11.30354309 2.67665588 11.30354309 5.05665588 11.30354309 C5.05665588 10.97354309 5.05665588 10.64354309 5.05665588 10.30354309 C2.41665588 10.30354309 -0.22334412 10.30354309 -2.94334412 10.30354309 Z M20.05665588 10.30354309 C20.05665588 10.63354309 20.05665588 10.96354309 20.05665588 11.30354309 C21.70665588 11.30354309 23.35665588 11.30354309 25.05665588 11.30354309 C25.05665588 10.97354309 25.05665588 10.64354309 25.05665588 10.30354309 C23.40665588 10.30354309 21.75665588 10.30354309 20.05665588 10.30354309 Z M8.05665588 11.30354309 C8.05665588 11.96354309 8.05665588 12.62354309 8.05665588 13.30354309 C8.71665588 13.30354309 9.37665588 13.30354309 10.05665588 13.30354309 C10.05665588 12.64354309 10.05665588 11.98354309 10.05665588 11.30354309 C9.39665588 11.30354309 8.73665588 11.30354309 8.05665588 11.30354309 Z M10.05665588 13.30354309 C11.05665588 15.30354309 11.05665588 15.30354309 11.05665588 15.30354309 Z M16.05665588 13.30354309 C16.05665588 15.61354309 16.05665588 17.92354309 16.05665588 20.30354309 C16.38665588 20.30354309 16.71665588 20.30354309 17.05665588 20.30354309 C17.05665588 17.99354309 17.05665588 15.68354309 17.05665588 13.30354309 C16.72665588 13.30354309 16.39665588 13.30354309 16.05665588 13.30354309 Z M7.05665588 14.30354309 C6.72665588 15.62354309 6.39665588 16.94354309 6.05665588 18.30354309 C8.03665588 17.97354309 10.01665588 17.64354309 12.05665588 17.30354309 C11.72665588 16.64354309 11.39665588 15.98354309 11.05665588 15.30354309 C10.06665588 15.63354309 9.07665588 15.96354309 8.05665588 16.30354309 C7.72665588 15.64354309 7.39665588 14.98354309 7.05665588 14.30354309 Z M28.05665588 14.30354309 C28.05665588 15.95354309 28.05665588 17.60354309 28.05665588 19.30354309 C28.38665588 19.30354309 28.71665588 19.30354309 29.05665588 19.30354309 C29.05665588 17.65354309 29.05665588 16.00354309 29.05665588 14.30354309 C28.72665588 14.30354309 28.39665588 14.30354309 28.05665588 14.30354309 Z M12.05665588 17.30354309 C13.05665588 19.30354309 13.05665588 19.30354309 13.05665588 19.30354309 Z M5.05665588 18.30354309 C6.05665588 20.30354309 6.05665588 20.30354309 6.05665588 20.30354309 Z M4.05665588 20.30354309 C5.05665588 22.30354309 5.05665588 22.30354309 5.05665588 22.30354309 Z M13.05665588 20.30354309 C14.05665588 22.30354309 14.05665588 22.30354309 14.05665588 22.30354309 Z M27.05665588 19.30354309 C26.06665588 19.79854309 26.06665588 19.79854309 25.05665588 20.30354309 C25.05665588 20.96354309 25.05665588 21.62354309 25.05665588 22.30354309 C26.04665588 21.97354309 27.03665588 21.64354309 28.05665588 21.30354309 C27.72665588 20.64354309 27.39665588 19.98354309 27.05665588 19.30354309 Z M20.05665588 22.30354309 C20.05665588 22.63354309 20.05665588 22.96354309 20.05665588 23.30354309 C21.70665588 23.30354309 23.35665588 23.30354309 25.05665588 23.30354309 C25.05665588 22.97354309 25.05665588 22.64354309 25.05665588 22.30354309 C23.40665588 22.30354309 21.75665588 22.30354309 20.05665588 22.30354309 Z M34.05665588 30.30354309 C35.05665588 32.30354309 35.05665588 32.30354309 35.05665588 32.30354309 Z M14.05665588 34.30354309 C14.05665588 34.63354309 14.05665588 34.96354309 14.05665588 35.30354309 C19.66665588 35.30354309 25.27665588 35.30354309 31.05665588 35.30354309 C31.05665588 34.97354309 31.05665588 34.64354309 31.05665588 34.30354309 C25.44665588 34.30354309 19.83665588 34.30354309 14.05665588 34.30354309 Z " fill="#000000" transform="translate(11.943344116210938,6.6964569091796875)"/>
</svg>
