<svg version="1.0" xmlns="http://www.w3.org/2000/svg"
 width="12.000000pt" height="12.000000pt" viewBox="0 0 64.000000 64.000000"
 preserveAspectRatio="xMidYMid meet">

<g transform="translate(0.000000,64.000000) scale(0.100000,-0.100000)"
fill="#000000" stroke="none">
<path d="M140 580 c-13 -13 -20 -33 -20 -59 0 -36 -3 -40 -27 -43 -17 -2 -28
-9 -28 -18 0 -9 11 -16 28 -18 25 -3 27 -6 27 -52 0 -46 -2 -49 -27 -52 -17
-2 -28 -9 -28 -18 0 -9 11 -16 28 -18 25 -3 27 -6 27 -52 0 -46 -2 -49 -27
-52 -37 -4 -37 -32 0 -36 24 -3 27 -7 27 -43 0 -26 7 -46 20 -59 19 -19 33
-20 210 -20 177 0 191 1 210 20 19 19 20 33 20 260 0 227 -1 241 -20 260 -19
19 -33 20 -210 20 -177 0 -191 -1 -210 -20z m255 -105 c16 -15 25 -36 25 -55
0 -19 -9 -40 -25 -55 -15 -16 -36 -25 -55 -25 -19 0 -40 9 -55 25 -50 49 -15
135 55 135 19 0 40 -9 55 -25z m40 -180 c33 -32 33 -78 0 -110 -21 -22 -33
-25 -95 -25 -62 0 -74 3 -95 25 -16 15 -25 36 -25 55 0 19 9 40 25 55 21 22
33 25 95 25 62 0 74 -3 95 -25z"/>
</g>
</svg>
