<?xml version="1.0" encoding="UTF-8"?>
<svg xmlns="http://www.w3.org/2000/svg" xmlns:xlink="http://www.w3.org/1999/xlink" width="12px" height="12px" viewBox="0 0 12 12" version="1.1">
<g id="surface1">
<path style=" stroke:none;fill-rule:nonzero;fill:rgb(0%,0%,0%);fill-opacity:1;" d="M 2.050781 6.324219 C 2.324219 6.324219 2.324219 6.324219 2.605469 6.324219 C 2.796875 6.324219 2.988281 6.328125 3.1875 6.328125 C 3.378906 6.328125 3.570312 6.324219 3.769531 6.324219 C 3.953125 6.324219 4.136719 6.324219 4.324219 6.324219 C 4.492188 6.324219 4.660156 6.324219 4.835938 6.328125 C 5.25 6.375 5.25 6.375 5.625 6.75 C 5.671875 7.164062 5.671875 7.164062 5.675781 7.675781 C 5.675781 7.949219 5.675781 7.949219 5.675781 8.230469 C 5.675781 8.421875 5.671875 8.613281 5.671875 8.8125 C 5.671875 9.003906 5.675781 9.195312 5.675781 9.394531 C 5.675781 9.578125 5.675781 9.761719 5.675781 9.949219 C 5.675781 10.117188 5.675781 10.285156 5.671875 10.460938 C 5.625 10.875 5.625 10.875 5.25 11.25 C 4.835938 11.296875 4.835938 11.296875 4.324219 11.300781 C 4.140625 11.300781 3.957031 11.300781 3.769531 11.300781 C 3.578125 11.300781 3.386719 11.296875 3.1875 11.296875 C 2.996094 11.296875 2.804688 11.300781 2.605469 11.300781 C 2.421875 11.300781 2.238281 11.300781 2.050781 11.300781 C 1.882812 11.300781 1.714844 11.300781 1.539062 11.296875 C 1.125 11.25 1.125 11.25 0.75 10.875 C 0.703125 10.460938 0.703125 10.460938 0.699219 9.949219 C 0.699219 9.765625 0.699219 9.582031 0.699219 9.394531 C 0.699219 9.203125 0.703125 9.011719 0.703125 8.8125 C 0.703125 8.621094 0.699219 8.429688 0.699219 8.230469 C 0.699219 8.046875 0.699219 7.863281 0.699219 7.675781 C 0.699219 7.507812 0.699219 7.339844 0.703125 7.164062 C 0.800781 6.304688 1.3125 6.328125 2.050781 6.324219 Z M 2.050781 6.324219 "/>
<path style=" stroke:none;fill-rule:nonzero;fill:rgb(0%,0%,0%);fill-opacity:1;" d="M 7.675781 0.699219 C 7.949219 0.699219 7.949219 0.699219 8.230469 0.699219 C 8.421875 0.699219 8.613281 0.703125 8.8125 0.703125 C 9.003906 0.703125 9.195312 0.699219 9.394531 0.699219 C 9.578125 0.699219 9.761719 0.699219 9.949219 0.699219 C 10.117188 0.699219 10.285156 0.699219 10.460938 0.703125 C 10.875 0.75 10.875 0.75 11.25 1.125 C 11.296875 1.539062 11.296875 1.539062 11.300781 2.050781 C 11.300781 2.324219 11.300781 2.324219 11.300781 2.605469 C 11.300781 2.796875 11.296875 2.988281 11.296875 3.1875 C 11.296875 3.378906 11.300781 3.570312 11.300781 3.769531 C 11.300781 3.953125 11.300781 4.136719 11.300781 4.324219 C 11.300781 4.492188 11.300781 4.660156 11.296875 4.835938 C 11.25 5.25 11.25 5.25 10.875 5.625 C 10.460938 5.671875 10.460938 5.671875 9.949219 5.675781 C 9.765625 5.675781 9.582031 5.675781 9.394531 5.675781 C 9.203125 5.675781 9.011719 5.671875 8.8125 5.671875 C 8.621094 5.671875 8.429688 5.675781 8.230469 5.675781 C 8.046875 5.675781 7.863281 5.675781 7.675781 5.675781 C 7.507812 5.675781 7.339844 5.675781 7.164062 5.671875 C 6.75 5.625 6.75 5.625 6.375 5.25 C 6.328125 4.835938 6.328125 4.835938 6.324219 4.324219 C 6.324219 4.140625 6.324219 3.957031 6.324219 3.769531 C 6.324219 3.578125 6.328125 3.386719 6.328125 3.1875 C 6.328125 2.996094 6.324219 2.804688 6.324219 2.605469 C 6.324219 2.421875 6.324219 2.238281 6.324219 2.050781 C 6.324219 1.882812 6.324219 1.714844 6.328125 1.539062 C 6.425781 0.679688 6.9375 0.703125 7.675781 0.699219 Z M 7.675781 0.699219 "/>
<path style=" stroke:none;fill-rule:nonzero;fill:rgb(0%,0%,0%);fill-opacity:1;" d="M 7.96875 6.699219 C 8.136719 6.699219 8.300781 6.699219 8.472656 6.699219 C 8.734375 6.699219 8.734375 6.699219 9 6.703125 C 9.175781 6.703125 9.347656 6.699219 9.527344 6.699219 C 9.777344 6.699219 9.777344 6.699219 10.03125 6.699219 C 10.183594 6.699219 10.335938 6.699219 10.492188 6.703125 C 10.875 6.75 10.875 6.75 11.25 7.125 C 11.296875 7.507812 11.296875 7.507812 11.300781 7.96875 C 11.300781 8.21875 11.300781 8.21875 11.300781 8.472656 C 11.300781 8.648438 11.296875 8.820312 11.296875 9 C 11.296875 9.175781 11.300781 9.347656 11.300781 9.527344 C 11.300781 9.695312 11.300781 9.859375 11.300781 10.03125 C 11.300781 10.183594 11.300781 10.335938 11.296875 10.492188 C 11.25 10.875 11.25 10.875 10.875 11.25 C 10.492188 11.296875 10.492188 11.296875 10.03125 11.300781 C 9.863281 11.300781 9.699219 11.300781 9.527344 11.300781 C 9.351562 11.300781 9.179688 11.296875 9 11.296875 C 8.738281 11.300781 8.738281 11.300781 8.472656 11.300781 C 8.222656 11.300781 8.222656 11.300781 7.96875 11.300781 C 7.816406 11.300781 7.664062 11.300781 7.507812 11.296875 C 7.125 11.25 7.125 11.25 6.75 10.875 C 6.703125 10.492188 6.703125 10.492188 6.699219 10.03125 C 6.699219 9.863281 6.699219 9.699219 6.699219 9.527344 C 6.699219 9.265625 6.699219 9.265625 6.703125 9 C 6.703125 8.824219 6.699219 8.652344 6.699219 8.472656 C 6.699219 8.304688 6.699219 8.140625 6.699219 7.96875 C 6.699219 7.816406 6.699219 7.664062 6.703125 7.507812 C 6.804688 6.707031 7.28125 6.703125 7.96875 6.699219 Z M 7.5 7.875 C 7.441406 8.40625 7.441406 8.40625 7.453125 9 C 7.453125 9.199219 7.453125 9.402344 7.449219 9.609375 C 7.449219 10.152344 7.449219 10.152344 7.875 10.5 C 8.40625 10.558594 8.40625 10.558594 9 10.546875 C 9.199219 10.546875 9.402344 10.546875 9.609375 10.550781 C 10.152344 10.550781 10.152344 10.550781 10.5 10.125 C 10.558594 9.59375 10.558594 9.59375 10.546875 9 C 10.546875 8.800781 10.546875 8.597656 10.550781 8.390625 C 10.550781 7.847656 10.550781 7.847656 10.125 7.5 C 9.59375 7.441406 9.59375 7.441406 9 7.453125 C 8.800781 7.453125 8.597656 7.453125 8.390625 7.449219 C 7.847656 7.449219 7.847656 7.449219 7.5 7.875 Z M 7.5 7.875 "/>
<path style=" stroke:none;fill-rule:nonzero;fill:rgb(0%,0%,0%);fill-opacity:1;" d="M 1.96875 0.699219 C 2.136719 0.699219 2.300781 0.699219 2.472656 0.699219 C 2.734375 0.699219 2.734375 0.699219 3 0.703125 C 3.175781 0.703125 3.347656 0.699219 3.527344 0.699219 C 3.777344 0.699219 3.777344 0.699219 4.03125 0.699219 C 4.183594 0.699219 4.335938 0.699219 4.492188 0.703125 C 4.875 0.75 4.875 0.75 5.25 1.125 C 5.296875 1.507812 5.296875 1.507812 5.300781 1.96875 C 5.300781 2.21875 5.300781 2.21875 5.300781 2.472656 C 5.300781 2.648438 5.296875 2.820312 5.296875 3 C 5.296875 3.175781 5.300781 3.347656 5.300781 3.527344 C 5.300781 3.695312 5.300781 3.859375 5.300781 4.03125 C 5.300781 4.183594 5.300781 4.335938 5.296875 4.496094 C 5.25 4.875 5.25 4.875 4.875 5.25 C 4.492188 5.296875 4.492188 5.296875 4.03125 5.300781 C 3.863281 5.300781 3.699219 5.300781 3.527344 5.300781 C 3.351562 5.300781 3.179688 5.296875 3 5.296875 C 2.738281 5.300781 2.738281 5.300781 2.472656 5.300781 C 2.222656 5.300781 2.222656 5.300781 1.96875 5.300781 C 1.816406 5.300781 1.664062 5.300781 1.507812 5.296875 C 1.125 5.25 1.125 5.25 0.75 4.875 C 0.703125 4.496094 0.703125 4.496094 0.699219 4.03125 C 0.699219 3.863281 0.699219 3.699219 0.699219 3.527344 C 0.699219 3.265625 0.699219 3.265625 0.703125 3 C 0.703125 2.824219 0.699219 2.652344 0.699219 2.472656 C 0.699219 2.304688 0.699219 2.140625 0.699219 1.96875 C 0.699219 1.816406 0.699219 1.664062 0.703125 1.507812 C 0.804688 0.707031 1.28125 0.703125 1.96875 0.699219 Z M 1.5 1.875 C 1.441406 2.40625 1.441406 2.40625 1.453125 3 C 1.453125 3.199219 1.453125 3.402344 1.449219 3.609375 C 1.449219 4.152344 1.449219 4.152344 1.875 4.5 C 2.40625 4.558594 2.40625 4.558594 3 4.546875 C 3.199219 4.546875 3.402344 4.546875 3.609375 4.550781 C 4.152344 4.550781 4.152344 4.550781 4.5 4.125 C 4.558594 3.59375 4.558594 3.59375 4.546875 3 C 4.546875 2.800781 4.546875 2.597656 4.550781 2.390625 C 4.550781 1.847656 4.550781 1.847656 4.125 1.5 C 3.59375 1.441406 3.59375 1.441406 3 1.453125 C 2.800781 1.453125 2.597656 1.453125 2.390625 1.449219 C 1.847656 1.449219 1.847656 1.449219 1.5 1.875 Z M 1.5 1.875 "/>
</g>
</svg>
