<svg version="1.0" xmlns="http://www.w3.org/2000/svg"
 width="12.000000pt" height="12.000000pt" viewBox="0 0 64.000000 64.000000"
 preserveAspectRatio="xMidYMid meet">
<g transform="translate(0.000000,64.000000) scale(0.100000,-0.100000)"
fill="#000000" stroke="none">
<path d="M257 613 c-20 -16 -47 -35 -59 -44 -18 -13 -23 -27 -25 -65 -1 -27
-5 -61 -8 -76 -6 -21 -1 -33 26 -63 19 -20 46 -49 61 -66 38 -41 98 -41 136 0
15 17 42 46 61 66 26 29 32 42 27 63 -4 15 -13 55 -20 89 -14 71 -28 91 -73
110 -49 20 -86 16 -126 -14z"/>
<path d="M150 235 c-84 -35 -107 -60 -115 -128 -4 -31 -4 -68 -1 -82 l6 -25
280 0 280 0 6 25 c3 14 3 51 -1 82 -5 44 -13 63 -35 82 -27 25 -131 71 -161
71 -8 0 -22 -19 -31 -42 -15 -38 -17 -40 -17 -15 -1 25 -4 27 -41 27 -37 0
-40 -2 -41 -27 0 -25 -2 -23 -17 15 -19 49 -31 51 -112 17z m375 -150 c0 -30
0 -30 -62 -33 l-63 -3 0 36 0 36 63 -3 c62 -3 62 -3 62 -33z"/>
</g>
</svg>