<?xml version="1.0" encoding="UTF-8"?>
<svg version="1.1" xmlns="http://www.w3.org/2000/svg" width="64" height="64">
<path d="M0 0 C0.83426514 -0.00630432 1.66853027 -0.01260864 2.52807617 -0.019104 C3.43017822 -0.01505554 4.33228027 -0.01100708 5.26171875 -0.00683594 C6.64870972 -0.00970612 6.64870972 -0.00970612 8.0637207 -0.01263428 C10.02067334 -0.0139966 11.97763499 -0.0102969 13.93457031 -0.00195312 C16.93705465 0.00874572 19.93894062 -0.00184685 22.94140625 -0.01464844 C24.83984508 -0.01332685 26.73828353 -0.01076448 28.63671875 -0.00683594 C29.5388208 -0.0108844 30.44092285 -0.01493286 31.37036133 -0.019104 C32.62175903 -0.00964752 32.62175903 -0.00964752 33.8984375 0 C34.63408936 0.00159119 35.36974121 0.00318237 36.12768555 0.00482178 C37.94921875 0.25878906 37.94921875 0.25878906 39.94921875 2.25878906 C40.89241189 5.09047148 41.0795358 7.70158593 41.09448242 10.67260742 C41.10086227 11.53707993 41.10724213 12.40155243 41.11381531 13.29222107 C41.11492813 14.21833694 41.11604095 15.14445282 41.1171875 16.09863281 C41.1221801 17.53729454 41.1221801 17.53729454 41.12727356 19.00502014 C41.13233154 21.03158082 41.13468223 23.05814981 41.13452148 25.0847168 C41.13670816 28.18129208 41.15487642 31.27751115 41.17382812 34.37402344 C41.17676225 36.34472535 41.17874692 38.31542894 41.1796875 40.28613281 C41.18687302 41.21022446 41.19405853 42.1343161 41.20146179 43.08641052 C41.16615944 53.04184838 41.16615944 53.04184838 37.94921875 56.25878906 C34.87010216 56.37239199 31.81426409 56.42298011 28.734375 56.42675781 C27.80829941 56.43008621 26.88222382 56.43341461 25.92808533 56.43684387 C23.96516417 56.44191714 22.00223435 56.44425208 20.03930664 56.4440918 C17.02801364 56.44627724 14.01708741 56.4644258 11.00585938 56.48339844 C9.10286584 56.48633242 7.19987056 56.48831718 5.296875 56.48925781 C4.39163589 56.49644333 3.48639679 56.50362885 2.5537262 56.5110321 C1.29748695 56.50641716 1.29748695 56.50641716 0.01586914 56.50170898 C-1.09213295 56.50384651 -1.09213295 56.50384651 -2.22251892 56.50602722 C-4.05078125 56.25878906 -4.05078125 56.25878906 -6.05078125 54.25878906 C-6.24609375 51.87597656 -6.24609375 51.87597656 -6.17578125 49.13378906 C-6.15773438 48.22371094 -6.1396875 47.31363281 -6.12109375 46.37597656 C-6.09789062 45.67730469 -6.0746875 44.97863281 -6.05078125 44.25878906 C-8.03078125 44.25878906 -10.01078125 44.25878906 -12.05078125 44.25878906 C-12.05078125 42.93878906 -12.05078125 41.61878906 -12.05078125 40.25878906 C-10.07078125 40.25878906 -8.09078125 40.25878906 -6.05078125 40.25878906 C-6.05078125 36.95878906 -6.05078125 33.65878906 -6.05078125 30.25878906 C-8.03078125 30.25878906 -10.01078125 30.25878906 -12.05078125 30.25878906 C-12.05078125 28.93878906 -12.05078125 27.61878906 -12.05078125 26.25878906 C-10.07078125 26.25878906 -8.09078125 26.25878906 -6.05078125 26.25878906 C-6.05078125 22.95878906 -6.05078125 19.65878906 -6.05078125 16.25878906 C-8.03078125 16.25878906 -10.01078125 16.25878906 -12.05078125 16.25878906 C-12.05078125 14.93878906 -12.05078125 13.61878906 -12.05078125 12.25878906 C-10.07078125 12.25878906 -8.09078125 12.25878906 -6.05078125 12.25878906 C-6.07398438 11.56011719 -6.0971875 10.86144531 -6.12109375 10.14160156 C-6.14816406 8.77648437 -6.14816406 8.77648437 -6.17578125 7.38378906 C-6.19898438 6.47886719 -6.2221875 5.57394531 -6.24609375 4.64160156 C-5.89650198 0.37658193 -3.77518388 0.00816558 0 0 Z M10.57421875 12.88378906 C8.46215369 15.97065338 8.3372673 17.58708037 8.94921875 21.25878906 C10.44921875 23.75878906 10.44921875 23.75878906 12.94921875 25.25878906 C16.62092745 25.87074051 18.23735443 25.74585412 21.32421875 23.63378906 C23.43628381 20.54692475 23.5611702 18.93049776 22.94921875 15.25878906 C21.44921875 12.75878906 21.44921875 12.75878906 18.94921875 11.25878906 C15.27751005 10.64683761 13.66108307 10.771724 10.57421875 12.88378906 Z M5.94921875 31.25878906 C4.52880054 34.09962548 4.63469603 36.11356184 4.94921875 39.25878906 C7.18128306 42.10659525 8.49914874 43.10876572 11.94921875 44.25878906 C17.59088819 44.6287346 21.03256455 44.37666733 25.94921875 41.25878906 C27.36963696 38.41795265 27.26374147 36.40401629 26.94921875 33.25878906 C24.71715444 30.41098287 23.39928876 29.4088124 19.94921875 28.25878906 C14.30754931 27.88884353 10.86587295 28.14091079 5.94921875 31.25878906 Z " fill="#000000" transform="translate(18.05078125,3.7412109375)"/>
</svg>
