<svg version="1.0" xmlns="http://www.w3.org/2000/svg"
 width="12.000000pt" height="12.000000pt" viewBox="0 0 64.000000 64.000000"
 preserveAspectRatio="xMidYMid meet">

<g transform="translate(0.000000,64.000000) scale(0.100000,-0.100000)"
fill="#000000" stroke="none">
<path d="M16 624 c-21 -21 -21 -107 0 -128 13 -14 55 -16 304 -16 329 0 320
-2 320 80 0 82 9 80 -320 80 -249 0 -291 -2 -304 -16z"/>
<path d="M17 412 c-25 -27 -25 -372 -1 -396 12 -13 39 -16 133 -16 78 0 121 4
129 12 9 9 12 68 12 205 0 180 -1 193 -19 203 -11 5 -69 10 -129 10 -93 0
-111 -3 -125 -18z"/>
<path d="M368 419 c-15 -8 -18 -24 -18 -82 0 -44 5 -78 12 -85 8 -8 51 -12
129 -12 144 0 149 3 149 95 0 88 -11 95 -150 95 -58 0 -113 -5 -122 -11z"/>
<path d="M368 179 c-15 -8 -18 -24 -18 -82 0 -44 5 -78 12 -85 8 -8 51 -12
129 -12 144 0 149 3 149 95 0 88 -11 95 -150 95 -58 0 -113 -5 -122 -11z"/>
</g>
</svg>
