<svg version="1.0" xmlns="http://www.w3.org/2000/svg"
 width="12.000000pt" height="12.000000pt" viewBox="0 0 64.000000 64.000000"
 preserveAspectRatio="xMidYMid meet">

<g transform="translate(0.000000,64.000000) scale(0.100000,-0.100000)"
fill="#000000" stroke="none">
<path d="M61 553 c-21 -17 -22 -25 -19 -158 3 -149 2 -147 61 -168 5 -1 3 -15
-4 -30 -7 -15 -10 -29 -7 -32 2 -3 41 11 85 30 70 30 92 35 160 35 122 0 123
1 123 169 0 121 -2 140 -18 154 -16 14 -44 17 -189 17 -148 0 -174 -2 -192
-17z m114 -83 c4 -6 -8 -10 -29 -10 -25 0 -36 -4 -36 -15 0 -9 9 -15 24 -15
14 0 28 -4 31 -10 4 -6 -7 -10 -24 -10 -29 0 -31 -3 -31 -34 0 -19 -4 -38 -10
-41 -11 -7 -14 127 -3 138 10 11 71 8 78 -3z m208 -11 c24 -18 27 -27 25 -79
-1 -39 -5 -57 -12 -52 -6 4 -29 7 -50 8 -99 1 -99 138 0 143 6 1 23 -8 37 -20z
m-138 -46 c29 -63 30 -110 2 -55 -21 39 -53 43 -67 8 -9 -24 -30 -44 -30 -29
0 16 53 133 61 133 4 0 19 -26 34 -57z"/>
<path d="M312 444 c-12 -8 -22 -26 -22 -39 0 -24 33 -55 58 -55 9 0 11 7 7 20
-7 22 5 26 23 8 9 -9 12 -8 13 8 2 34 -2 49 -19 62 -21 16 -33 15 -60 -4z"/>
<path d="M205 420 c-3 -5 -1 -10 4 -10 6 0 11 5 11 10 0 6 -2 10 -4 10 -3 0
-8 -4 -11 -10z"/>
<path d="M488 434 c-5 -4 -8 -46 -8 -94 0 -116 -7 -123 -138 -130 -100 -5
-122 -11 -122 -35 0 -29 42 -45 117 -45 60 0 85 -5 139 -30 71 -32 91 -31 73
1 -6 12 -9 22 -7 23 2 1 15 10 31 19 l27 17 0 124 c0 96 -3 126 -15 136 -17
14 -87 25 -97 14z"/>
</g>
</svg>
