<svg version="1.0" xmlns="http://www.w3.org/2000/svg"
 width="12.000000pt" height="12.000000pt" viewBox="0 0 64.000000 64.000000"
 preserveAspectRatio="xMidYMid meet">

<g transform="translate(0.000000,64.000000) scale(0.100000,-0.100000)"
fill="#000000" stroke="none">
<path d="M136 525 l-110 -43 40 -17 c39 -16 39 -16 151 27 62 23 113 46 113
49 0 8 -57 29 -74 28 -6 0 -60 -20 -120 -44z"/>
<path d="M318 466 c-59 -23 -109 -44 -113 -47 -3 -4 8 -12 26 -18 27 -9 44 -6
138 30 58 23 109 45 114 49 4 3 -7 11 -26 17 -28 9 -47 4 -139 -31z"/>
<path d="M12 323 l3 -136 110 -44 c61 -23 113 -43 118 -43 4 0 7 61 7 135 l0
136 -32 14 c-33 13 -33 13 -36 -16 -3 -30 -4 -30 -28 -14 -14 9 -33 13 -44 10
-18 -6 -20 -1 -20 32 0 35 -3 40 -33 51 -18 7 -37 12 -40 12 -4 0 -6 -62 -5
-137z"/>
<path d="M380 416 l-105 -43 -3 -136 c-1 -81 1 -137 7 -137 5 0 29 9 54 19 40
17 43 21 39 50 -10 67 33 133 99 152 l39 12 0 64 c0 44 -4 63 -12 62 -7 -1
-60 -20 -118 -43z"/>
<path d="M449 287 c-58 -39 -74 -98 -44 -157 29 -56 109 -77 166 -43 31 19 59
68 59 105 0 36 -37 88 -75 104 -47 19 -66 18 -106 -9z m131 -55 c0 -25 -85
-106 -104 -99 -8 3 -23 18 -32 32 -13 20 -14 29 -5 38 9 9 16 7 29 -11 l17
-22 40 40 c43 44 55 49 55 22z"/>
</g>
</svg>
