<svg version="1.0" xmlns="http://www.w3.org/2000/svg"
width="12.000000pt" height="12.000000pt" viewBox="0 0 64.000000 64.000000"
 preserveAspectRatio="xMidYMid meet">

<g transform="translate(0.000000,64.000000) scale(0.100000,-0.100000)"
fill="#000000" stroke="none">
<path d="M207 608 c-15 -11 -11 -13 28 -13 39 0 43 2 28 13 -9 6 -22 12 -28
12 -6 0 -19 -6 -28 -12z"/>
<path d="M190 567 c-33 -12 -80 -66 -80 -93 0 -21 64 -17 121 7 l50 22 20 -22
c21 -22 59 -29 59 -11 0 6 -7 24 -14 39 -28 54 -95 79 -156 58z"/>
<path d="M230 459 c-19 -11 -52 -19 -73 -19 -42 0 -63 -25 -34 -42 10 -5 17
-20 17 -34 0 -35 60 -94 95 -94 35 0 95 59 95 94 0 14 7 29 17 34 21 12 10 42
-17 42 -11 0 -29 9 -40 20 -11 11 -21 19 -22 19 -2 -1 -19 -10 -38 -20z"/>
<path d="M421 283 c-124 -65 -93 -242 45 -259 73 -9 141 46 150 122 13 104
-103 186 -195 137z m106 -124 c-4 -29 -2 -39 9 -39 8 0 14 5 14 12 0 6 9 3 20
-7 15 -14 17 -21 9 -32 -13 -15 -39 -18 -39 -3 0 6 -36 10 -87 10 -72 1 -85 3
-72 13 12 9 14 18 8 35 -9 24 6 76 19 68 5 -3 7 -19 4 -36 -5 -38 12 -60 47
-60 34 0 51 17 51 51 0 30 -24 57 -35 39 -5 -8 -11 -8 -21 1 -17 14 -18 31 -2
47 9 9 20 4 46 -24 30 -32 34 -41 29 -75z"/>
<path d="M215 230 c17 -19 19 -19 37 -4 24 23 24 24 -19 24 -36 0 -36 0 -18
-20z"/>
<path d="M170 234 c1 -17 37 -57 43 -47 4 6 -5 21 -18 33 -14 13 -25 19 -25
14z"/>
<path d="M272 217 c-12 -13 -19 -26 -16 -30 4 -3 16 5 26 19 26 33 18 41 -10
11z"/>
<path d="M95 201 c-56 -25 -63 -37 -67 -111 l-3 -65 183 -3 183 -2 -33 41
c-29 36 -33 48 -33 101 l0 60 -28 -34 c-22 -27 -30 -31 -45 -22 -12 8 -22 8
-35 0 -14 -9 -22 -6 -43 22 -29 37 -26 36 -79 13z"/>
</g>
</svg>
