<svg version="1.1" id="Layer_1" xmlns="http://www.w3.org/2000/svg" xmlns:xlink="http://www.w3.org/1999/xlink" x="0px" y="0px"
	 width="12.000000pt" height="12.000000pt" viewBox="0 0 64 64" enable-background="new 0 0 64 64" xml:space="preserve">
<path fill="#FFFFFF" opacity="1.000000" stroke="none" 
	d="
M1.272207,42.220371 
	C1.000000,29.244080 1.077987,16.487251 0.929520,3.733059 
	C0.902161,1.382761 1.389159,0.886567 3.735870,0.929130 
	C13.175465,1.100341 22.619984,1.000000 32.531342,1.000000 
	C34.776436,2.481567 33.675381,5.072062 35.385345,6.950334 
	C37.407288,5.607543 36.259857,3.006331 37.770599,1.260627 
	C46.105618,1.000000 54.214893,1.136160 62.314651,0.918300 
	C64.794037,0.851612 65.092514,1.559995 65.059547,3.776617 
	C64.919380,13.203517 65.000000,22.633699 65.000000,32.531342 
	C57.788338,35.950195 52.069088,40.925987 46.704674,46.406288 
	C44.033283,49.135391 34.641308,50.469662 31.116076,48.764141 
	C29.925413,48.188091 29.231928,47.377869 29.486185,46.034321 
	C29.792330,44.416595 31.124569,44.078545 32.475307,43.868465 
	C34.127148,43.611549 35.802902,43.783348 37.460335,43.668583 
	C38.877098,43.570488 40.481571,44.147251 42.353706,41.894623 
	C35.627064,42.103767 30.361481,38.391678 24.289446,38.464943 
	C18.595667,38.533638 17.158983,41.185383 19.844849,46.001568 
	C25.630672,56.376484 22.431391,55.301270 36.139694,55.821644 
	C46.116760,56.200382 52.099369,50.552696 57.849102,43.871830 
	C60.091152,41.266693 60.814194,37.453327 64.633942,35.908867 
	C65.000000,44.618385 64.827454,53.242130 65.094818,61.852211 
	C65.186760,64.813202 64.260139,65.090836 61.680443,65.067627 
	C46.433765,64.930412 31.185228,65.000000 15.468657,65.000000 
	C14.560782,63.255802 15.965455,62.499058 17.030880,62.012211 
	C21.397688,60.016800 20.748941,57.466789 18.467161,54.177570 
	C16.199543,50.908775 14.779452,47.125935 12.928607,43.598461 
	C11.223102,40.347984 9.129668,39.204067 5.766349,41.378063 
	C4.543878,42.168243 3.149381,42.882839 1.272207,42.220371 
z"/>
<path fill="#000000" opacity="1.000000" stroke="none" 
	d="
M65.000000,35.625000 
	C62.881348,36.793018 62.724419,38.937519 61.815308,40.577469 
	C58.171955,47.149742 52.380295,51.614029 46.413765,55.805359 
	C43.065300,58.157578 38.967648,56.396656 35.300713,57.053463 
	C27.081701,58.525616 21.389828,55.986549 19.171738,47.540680 
	C18.482189,44.915070 14.081612,42.946564 16.792931,39.949760 
	C19.515467,36.940559 23.883913,35.946617 27.697706,37.169384 
	C32.329906,38.654537 36.680267,40.681904 41.760170,40.100807 
	C43.151730,39.941620 44.625732,41.313015 44.517731,42.828220 
	C44.413567,44.289581 43.309132,45.189266 41.425201,45.059292 
	C38.274605,44.841927 35.098007,44.999226 31.932360,45.003704 
	C30.890293,45.005180 29.953663,45.047131 29.988922,46.539326 
	C30.024221,48.033092 31.016895,48.075871 32.008625,47.980824 
	C37.694439,47.435917 43.238319,49.417919 48.323730,43.043602 
	C51.787621,38.701771 56.552410,32.525993 64.591751,33.000000 
	C65.000000,33.750000 65.000000,34.500000 65.000000,35.625000 
z"/>
<path fill="#000000" opacity="1.000000" stroke="none" 
	d="
M1.000000,42.399994 
	C2.752665,42.107929 4.103891,41.111912 5.374317,40.179703 
	C9.595515,37.082268 12.041374,38.753620 14.036181,42.927593 
	C16.244837,47.549026 18.541830,52.162712 21.251930,56.497444 
	C22.950607,59.214424 22.766693,60.574593 19.780565,61.736126 
	C18.160145,62.366432 16.710419,63.435566 15.091848,64.653381 
	C13.933331,65.000000 12.866661,65.000000 11.399996,65.000000 
	C6.987895,59.284809 3.620442,53.235310 1.221061,46.284576 
	C1.000000,44.933331 1.000000,43.866661 1.000000,42.399994 
z"/>
<path fill="#FFFFFF" opacity="1.000000" stroke="none" 
	d="
M1.000000,46.469376 
	C5.225026,51.592522 8.025204,57.965725 10.998293,64.622559 
	C7.717983,65.000000 2.827136,66.282066 1.552417,64.682465 
	C-0.122093,62.581173 1.036275,58.210533 1.004851,54.815548 
	C0.980550,52.190159 1.000000,49.564365 1.000000,46.469376 
z"/>
<path fill="#000000" opacity="1.000000" stroke="none" 
	d="
M37.583336,1.000000 
	C37.999958,2.634745 37.991890,4.269541 38.002144,5.904221 
	C38.012260,7.516970 38.384277,9.040071 35.709648,9.095874 
	C32.979988,9.152825 32.827431,7.852077 32.981529,5.827640 
	C33.080502,4.527381 33.000034,3.213463 33.000000,1.452834 
	C34.388889,1.000000 35.777779,1.000000 37.583336,1.000000 
z"/>
<path fill="#000000" opacity="1.000000" stroke="none" 
	d="
M24.949890,34.001396 
	C22.215351,34.611649 19.907402,35.222965 17.458441,35.871632 
	C17.316210,35.475739 17.048285,35.062481 17.033754,34.640499 
	C16.736265,26.001144 16.784365,25.482342 25.300632,26.177532 
	C31.238272,26.662228 32.833576,23.201147 34.409687,18.889145 
	C35.023727,19.141014 35.753902,19.228073 35.834824,19.504915 
	C37.654545,25.730270 42.140163,26.733974 47.835552,26.117731 
	C49.427296,25.945503 52.579117,24.642179 52.774456,27.322449 
	C53.007965,30.526373 54.637932,34.425236 51.322144,37.091995 
	C49.261295,38.749451 47.671494,39.991306 43.989994,38.402107 
	C38.261547,35.929302 31.389868,36.469875 24.949890,34.001396 
z"/>
<path fill="#000000" opacity="1.000000" stroke="none" 
	d="
M40.120071,22.316273 
	C39.297619,20.482834 38.602509,19.070389 37.869434,17.580793 
	C50.570393,15.440891 53.073090,16.203749 55.491093,22.737267 
	C50.427567,22.737267 45.337490,22.737267 40.120071,22.316273 
z"/>
<path fill="#000000" opacity="1.000000" stroke="none" 
	d="
M18.356812,22.999966 
	C16.942535,22.705086 14.790992,23.493801 15.251184,22.038153 
	C15.829698,20.208233 15.871801,17.242599 18.801647,17.050741 
	C21.922516,16.846371 25.078016,16.848410 28.195759,17.073658 
	C29.485907,17.166870 32.114845,15.733193 31.839581,18.584385 
	C31.664225,20.400719 30.695662,22.771500 28.209263,22.942959 
	C25.089828,23.158072 21.944525,22.998095 18.356812,22.999966 
z"/>
<path fill="#000000" opacity="1.000000" stroke="none" 
	d="
M28.213100,10.315763 
	C25.043276,9.513186 23.024832,4.959367 24.527252,2.977397 
	C25.368334,1.867857 26.512455,2.005641 27.666677,2.007300 
	C29.196907,2.009500 28.941538,3.119442 29.028547,4.071208 
	C29.213947,6.099286 32.874981,8.426645 28.213100,10.315763 
z"/>
<path fill="#000000" opacity="1.000000" stroke="none" 
	d="
M45.771683,3.415442 
	C45.886520,4.745800 46.179634,6.150162 45.649845,6.613408 
	C44.339031,7.759570 45.331509,11.573377 41.618580,10.044978 
	C37.799324,8.472810 40.829681,6.306471 41.087040,4.554081 
	C41.519512,1.609320 43.250095,1.080620 45.771683,3.415442 
z"/>
</svg>