<svg version="1.0" xmlns="http://www.w3.org/2000/svg"
  width="12.000000pt" height="12.000000pt"  viewBox="0 0 64.000000 64.000000"
 preserveAspectRatio="xMidYMid meet">

<g transform="translate(0.000000,64.000000) scale(0.100000,-0.100000)"
fill="#000000" stroke="none">
<path d="M7 633 c-15 -14 -7 -100 10 -114 13 -11 76 -14 304 -15 332 -1 323
-3 317 82 l-3 49 -311 3 c-171 1 -313 -1 -317 -5z"/>
<path d="M40 335 c0 -118 1 -125 20 -125 19 0 20 7 20 125 0 118 -1 125 -20
125 -19 0 -20 -7 -20 -125z"/>
<path d="M284 448 c-22 -10 -44 -47 -44 -74 0 -23 55 -74 80 -74 28 0 80 52
80 80 0 27 -52 80 -77 79 -10 0 -28 -5 -39 -11z"/>
<path d="M560 335 c0 -118 1 -125 20 -125 19 0 20 7 20 125 0 118 -1 125 -20
125 -19 0 -20 -7 -20 -125z"/>
<path d="M197 292 c-10 -10 -17 -33 -17 -50 0 -30 2 -32 35 -32 34 0 35 1 35
38 0 34 -14 62 -30 62 -4 0 -14 -8 -23 -18z"/>
<path d="M402 298 c-7 -7 -12 -29 -12 -50 0 -37 1 -38 35 -38 33 0 35 2 35 33
0 20 -8 41 -18 50 -22 20 -25 20 -40 5z"/>
<path d="M280 239 c0 -27 3 -29 40 -29 37 0 40 2 40 29 0 26 -3 28 -40 28 -37
0 -40 -2 -40 -28z"/>
<path d="M8 163 c-3 -5 -2 -42 1 -83 l6 -75 48 -3 c45 -3 47 -2 47 23 0 18 6
29 20 32 11 3 20 12 20 19 0 11 31 14 164 14 160 0 166 -1 190 -24 15 -13 26
-33 26 -45 0 -20 4 -22 48 -19 l47 3 6 75 c3 41 4 78 1 83 -2 4 -142 7 -312 7
-170 0 -310 -3 -312 -7z"/>
<path d="M168 39 c-10 -10 -18 -23 -18 -29 0 -6 63 -10 170 -10 105 0 170 4
170 10 0 5 -8 19 -17 30 -16 18 -29 20 -153 19 -120 -1 -137 -3 -152 -20z"/>
</g>
</svg>
